<mxfile host="www.draw.io" modified="2019-11-26T08:00:59.931Z" agent="Mozilla/5.0 (Macintosh; Intel Mac OS X 10_14_6) AppleWebKit/537.36 (KHTML, like Gecko) Chrome/78.0.3904.108 Safari/537.36" etag="zgHOQJ753lMVgNrhVnG4" version="12.3.1" type="github" pages="1">
  <diagram name="Page-1" id="52a04d89-c75d-2922-d76d-85b35f80e030">
    <mxGraphModel dx="946" dy="591" grid="1" gridSize="10" guides="1" tooltips="1" connect="1" arrows="1" fold="1" page="1" pageScale="1" pageWidth="1100" pageHeight="850" background="#ffffff" math="0" shadow="0">
      <root>
        <mxCell id="0"/>
        <mxCell id="1" parent="0"/>
        <mxCell id="21ea969265ad0168-30" value="OSS？" style="html=1;rounded=0;shadow=0;comic=0;labelBackgroundColor=none;strokeWidth=2;fontFamily=Verdana;fontSize=12;align=center;shape=mxgraph.ios7ui.horLines;" parent="1" vertex="1">
          <mxGeometry x="920" y="106" width="135" height="50" as="geometry"/>
        </mxCell>
        <mxCell id="17472293e6e8944d-29" value="展示图片" style="whiteSpace=wrap;html=1;rounded=0;shadow=0;comic=0;labelBackgroundColor=none;strokeWidth=1;fontFamily=Verdana;fontSize=12;align=center;" parent="1" vertex="1">
          <mxGeometry x="720" y="57" width="120" height="50" as="geometry"/>
        </mxCell>
        <mxCell id="1fdf3b25b50cf41e-27" style="edgeStyle=none;html=1;labelBackgroundColor=none;startFill=0;startSize=8;endFill=1;endSize=8;fontFamily=Verdana;fontSize=12;" parent="1" source="17472293e6e8944d-30" target="1fdf3b25b50cf41e-1" edge="1">
          <mxGeometry relative="1" as="geometry"/>
        </mxCell>
        <mxCell id="17472293e6e8944d-30" value="用户选择图片" style="whiteSpace=wrap;html=1;rounded=0;shadow=0;comic=0;labelBackgroundColor=none;strokeWidth=1;fontFamily=Verdana;fontSize=12;align=center;" parent="1" vertex="1">
          <mxGeometry x="160" y="54" width="120" height="50" as="geometry"/>
        </mxCell>
        <mxCell id="1fdf3b25b50cf41e-28" style="edgeStyle=none;html=1;labelBackgroundColor=none;startFill=0;startSize=8;endFill=1;endSize=8;fontFamily=Verdana;fontSize=12;" parent="1" source="1fdf3b25b50cf41e-1" target="17472293e6e8944d-29" edge="1">
          <mxGeometry relative="1" as="geometry"/>
        </mxCell>
        <mxCell id="1fdf3b25b50cf41e-38" style="edgeStyle=orthogonalEdgeStyle;html=1;labelBackgroundColor=none;startFill=0;startSize=8;endFill=1;endSize=8;fontFamily=Verdana;fontSize=12;" parent="1" source="1fdf3b25b50cf41e-1" target="21ea969265ad0168-30" edge="1">
          <mxGeometry relative="1" as="geometry">
            <Array as="points">
              <mxPoint x="540" y="132"/>
            </Array>
          </mxGeometry>
        </mxCell>
        <mxCell id="Hoq8ob0O886WZsnlnNs5-4" value="" style="edgeStyle=orthogonalEdgeStyle;rounded=0;orthogonalLoop=1;jettySize=auto;html=1;" edge="1" parent="1" source="1fdf3b25b50cf41e-1">
          <mxGeometry relative="1" as="geometry">
            <mxPoint x="500" y="140" as="targetPoint"/>
          </mxGeometry>
        </mxCell>
        <mxCell id="1fdf3b25b50cf41e-1" value="1.1" style="swimlane;html=1;fontStyle=0;childLayout=stackLayout;horizontal=1;startSize=26;fillColor=#e0e0e0;horizontalStack=0;resizeParent=1;resizeLast=0;collapsible=1;marginBottom=0;swimlaneFillColor=#ffffff;align=center;rounded=1;shadow=0;comic=0;labelBackgroundColor=none;strokeWidth=1;fontFamily=Verdana;fontSize=12" parent="1" vertex="1">
          <mxGeometry x="430" y="54" width="140" height="52" as="geometry"/>
        </mxCell>
        <mxCell id="1fdf3b25b50cf41e-2" value="上传图片" style="text;html=1;strokeColor=none;fillColor=none;spacingLeft=4;spacingRight=4;whiteSpace=wrap;overflow=hidden;rotatable=0;points=[[0,0.5],[1,0.5]];portConstraint=eastwest;align=center;" parent="1fdf3b25b50cf41e-1" vertex="1">
          <mxGeometry y="26" width="140" height="26" as="geometry"/>
        </mxCell>
        <mxCell id="1fdf3b25b50cf41e-6" value="store" style="html=1;rounded=0;shadow=0;comic=0;labelBackgroundColor=none;strokeWidth=2;fontFamily=Verdana;fontSize=12;align=center;shape=mxgraph.ios7ui.horLines;" parent="1" vertex="1">
          <mxGeometry x="920" y="246" width="135" height="50" as="geometry"/>
        </mxCell>
        <mxCell id="1fdf3b25b50cf41e-7" value="1.2" style="swimlane;html=1;fontStyle=0;childLayout=stackLayout;horizontal=1;startSize=26;fillColor=#e0e0e0;horizontalStack=0;resizeParent=1;resizeLast=0;collapsible=1;marginBottom=0;swimlaneFillColor=#ffffff;align=center;rounded=1;shadow=0;comic=0;labelBackgroundColor=none;strokeWidth=1;fontFamily=Verdana;fontSize=12" parent="1" vertex="1">
          <mxGeometry x="430" y="220" width="140" height="52" as="geometry"/>
        </mxCell>
        <mxCell id="1fdf3b25b50cf41e-8" value="识别图片" style="text;html=1;strokeColor=none;fillColor=none;spacingLeft=4;spacingRight=4;whiteSpace=wrap;overflow=hidden;rotatable=0;points=[[0,0.5],[1,0.5]];portConstraint=eastwest;align=center;" parent="1fdf3b25b50cf41e-7" vertex="1">
          <mxGeometry y="26" width="140" height="26" as="geometry"/>
        </mxCell>
        <mxCell id="1fdf3b25b50cf41e-46" style="edgeStyle=orthogonalEdgeStyle;html=1;labelBackgroundColor=none;startFill=0;startSize=8;endFill=1;endSize=8;fontFamily=Verdana;fontSize=12;exitX=0.714;exitY=1;exitDx=0;exitDy=0;entryX=0;entryY=0.74;entryDx=0;entryDy=0;entryPerimeter=0;exitPerimeter=0;" parent="1" source="1fdf3b25b50cf41e-8" target="1fdf3b25b50cf41e-6" edge="1">
          <mxGeometry relative="1" as="geometry">
            <Array as="points">
              <mxPoint x="530" y="283"/>
            </Array>
            <mxPoint x="650" y="356" as="sourcePoint"/>
            <mxPoint x="910" y="283" as="targetPoint"/>
          </mxGeometry>
        </mxCell>
        <mxCell id="Hoq8ob0O886WZsnlnNs5-11" value="" style="edgeStyle=orthogonalEdgeStyle;rounded=0;orthogonalLoop=1;jettySize=auto;html=1;entryX=0;entryY=0.5;entryDx=0;entryDy=0;" edge="1" parent="1" source="1fdf3b25b50cf41e-21" target="Hoq8ob0O886WZsnlnNs5-8">
          <mxGeometry relative="1" as="geometry">
            <mxPoint x="650" y="425" as="targetPoint"/>
          </mxGeometry>
        </mxCell>
        <mxCell id="1fdf3b25b50cf41e-21" value="1.4" style="swimlane;html=1;fontStyle=0;childLayout=stackLayout;horizontal=1;startSize=26;fillColor=#e0e0e0;horizontalStack=0;resizeParent=1;resizeLast=0;collapsible=1;marginBottom=0;swimlaneFillColor=#ffffff;align=center;rounded=1;shadow=0;comic=0;labelBackgroundColor=none;strokeWidth=1;fontFamily=Verdana;fontSize=12" parent="1" vertex="1">
          <mxGeometry x="430" y="479" width="140" height="52" as="geometry"/>
        </mxCell>
        <mxCell id="1fdf3b25b50cf41e-22" value="标注信息处理" style="text;html=1;strokeColor=none;fillColor=none;spacingLeft=4;spacingRight=4;whiteSpace=wrap;overflow=hidden;rotatable=0;points=[[0,0.5],[1,0.5]];portConstraint=eastwest;align=center;" parent="1fdf3b25b50cf41e-21" vertex="1">
          <mxGeometry y="26" width="140" height="26" as="geometry"/>
        </mxCell>
        <mxCell id="1fdf3b25b50cf41e-41" style="edgeStyle=orthogonalEdgeStyle;html=1;labelBackgroundColor=none;startFill=0;startSize=8;endFill=1;endSize=8;fontFamily=Verdana;fontSize=12;entryX=0.75;entryY=0;entryDx=0;entryDy=0;exitX=0.548;exitY=1.08;exitDx=0;exitDy=0;exitPerimeter=0;" parent="1" source="1fdf3b25b50cf41e-6" target="1fdf3b25b50cf41e-21" edge="1">
          <mxGeometry relative="1" as="geometry">
            <Array as="points">
              <mxPoint x="994" y="430"/>
              <mxPoint x="535" y="430"/>
            </Array>
            <mxPoint x="120" y="281" as="sourcePoint"/>
            <mxPoint x="430" y="426" as="targetPoint"/>
          </mxGeometry>
        </mxCell>
        <mxCell id="Hoq8ob0O886WZsnlnNs5-7" value="" style="edgeStyle=orthogonalEdgeStyle;rounded=0;orthogonalLoop=1;jettySize=auto;html=1;entryX=0.5;entryY=0;entryDx=0;entryDy=0;" edge="1" parent="1" source="Hoq8ob0O886WZsnlnNs5-5" target="1fdf3b25b50cf41e-7">
          <mxGeometry relative="1" as="geometry"/>
        </mxCell>
        <mxCell id="Hoq8ob0O886WZsnlnNs5-5" value="图片地址" style="whiteSpace=wrap;html=1;rounded=0;shadow=0;comic=0;labelBackgroundColor=none;strokeWidth=1;fontFamily=Verdana;fontSize=12;align=center;" vertex="1" parent="1">
          <mxGeometry x="440" y="138" width="120" height="50" as="geometry"/>
        </mxCell>
        <mxCell id="Hoq8ob0O886WZsnlnNs5-6" style="edgeStyle=orthogonalEdgeStyle;html=1;labelBackgroundColor=none;startFill=0;startSize=8;endFill=1;endSize=8;fontFamily=Verdana;fontSize=12;exitX=1;exitY=0.5;exitDx=0;exitDy=0;" edge="1" parent="1" source="Hoq8ob0O886WZsnlnNs5-5">
          <mxGeometry relative="1" as="geometry">
            <Array as="points">
              <mxPoint x="870" y="163"/>
              <mxPoint x="870" y="260"/>
              <mxPoint x="920" y="260"/>
            </Array>
            <mxPoint x="550" y="116" as="sourcePoint"/>
            <mxPoint x="920" y="260" as="targetPoint"/>
          </mxGeometry>
        </mxCell>
        <mxCell id="Hoq8ob0O886WZsnlnNs5-8" value="展示结果" style="whiteSpace=wrap;html=1;rounded=0;shadow=0;comic=0;labelBackgroundColor=none;strokeWidth=1;fontFamily=Verdana;fontSize=12;align=center;" vertex="1" parent="1">
          <mxGeometry x="720" y="480" width="120" height="50" as="geometry"/>
        </mxCell>
        <mxCell id="Hoq8ob0O886WZsnlnNs5-15" value="" style="edgeStyle=orthogonalEdgeStyle;rounded=0;orthogonalLoop=1;jettySize=auto;html=1;entryX=0;entryY=0.5;entryDx=0;entryDy=0;" edge="1" parent="1" source="Hoq8ob0O886WZsnlnNs5-12" target="1fdf3b25b50cf41e-7">
          <mxGeometry relative="1" as="geometry">
            <mxPoint x="260" y="246" as="targetPoint"/>
          </mxGeometry>
        </mxCell>
        <mxCell id="Hoq8ob0O886WZsnlnNs5-12" value="用户选择模型" style="whiteSpace=wrap;html=1;rounded=0;shadow=0;comic=0;labelBackgroundColor=none;strokeWidth=1;fontFamily=Verdana;fontSize=12;align=center;" vertex="1" parent="1">
          <mxGeometry x="160" y="221" width="120" height="50" as="geometry"/>
        </mxCell>
        <mxCell id="Hoq8ob0O886WZsnlnNs5-22" value="" style="edgeStyle=orthogonalEdgeStyle;rounded=0;orthogonalLoop=1;jettySize=auto;html=1;" edge="1" parent="1" source="Hoq8ob0O886WZsnlnNs5-16">
          <mxGeometry relative="1" as="geometry">
            <mxPoint x="500" y="480" as="targetPoint"/>
          </mxGeometry>
        </mxCell>
        <mxCell id="Hoq8ob0O886WZsnlnNs5-16" value="1.3" style="swimlane;html=1;fontStyle=0;childLayout=stackLayout;horizontal=1;startSize=26;fillColor=#e0e0e0;horizontalStack=0;resizeParent=1;resizeLast=0;collapsible=1;marginBottom=0;swimlaneFillColor=#ffffff;align=center;rounded=1;shadow=0;comic=0;labelBackgroundColor=none;strokeWidth=1;fontFamily=Verdana;fontSize=12" vertex="1" parent="1">
          <mxGeometry x="430" y="340" width="140" height="52" as="geometry"/>
        </mxCell>
        <mxCell id="Hoq8ob0O886WZsnlnNs5-17" value="判断当前图片" style="text;html=1;strokeColor=none;fillColor=none;spacingLeft=4;spacingRight=4;whiteSpace=wrap;overflow=hidden;rotatable=0;points=[[0,0.5],[1,0.5]];portConstraint=eastwest;align=center;" vertex="1" parent="Hoq8ob0O886WZsnlnNs5-16">
          <mxGeometry y="26" width="140" height="26" as="geometry"/>
        </mxCell>
        <mxCell id="Hoq8ob0O886WZsnlnNs5-19" style="edgeStyle=orthogonalEdgeStyle;html=1;labelBackgroundColor=none;startFill=0;startSize=8;endFill=1;endSize=8;fontFamily=Verdana;fontSize=12;entryX=1;entryY=0.5;entryDx=0;entryDy=0;exitX=0.289;exitY=1.04;exitDx=0;exitDy=0;exitPerimeter=0;" edge="1" parent="1" source="1fdf3b25b50cf41e-6" target="Hoq8ob0O886WZsnlnNs5-16">
          <mxGeometry relative="1" as="geometry">
            <Array as="points">
              <mxPoint x="959" y="366"/>
            </Array>
            <mxPoint x="1004" y="310" as="sourcePoint"/>
            <mxPoint x="510" y="489" as="targetPoint"/>
          </mxGeometry>
        </mxCell>
      </root>
    </mxGraphModel>
  </diagram>
</mxfile>
